<svg xmlns="http://www.w3.org/2000/svg" xmlns:xlink="http://www.w3.org/1999/xlink" width="20" height="20" version="1.1" viewBox="0 0 20 20"><title>20/table</title><desc>Created with Sketch.</desc><g id="All-Icons" fill="none" fill-rule="evenodd" stroke="none" stroke-width="1"><g id="20/table"><polygon id="Container" points="0 0 20 0 20 20 0 20"/><path id="Shape-Copy-7" fill="#000" d="M3,3 L17,3 L17,17 L3,17 L3,3 Z M5,9 L7,9 L7,11 L5,11 L5,9 Z M5,5 L15,5 L15,7 L5,7 L5,5 Z M5,13 L7,13 L7,15 L5,15 L5,13 Z M9,9 L11,9 L11,11 L9,11 L9,9 Z M13,9 L15,9 L15,11 L13,11 L13,9 Z M9,13 L11,13 L11,15 L9,15 L9,13 Z M13,13 L15,13 L15,15 L13,15 L13,13 Z"/></g></g></svg>