<svg xmlns="http://www.w3.org/2000/svg" xmlns:xlink="http://www.w3.org/1999/xlink" width="18" height="18" version="1.1" viewBox="0 0 18 18"><title>18/bigquery-table-view</title><desc>Created with Sketch.</desc><g id="All-Icons" fill="none" fill-rule="evenodd" stroke="none" stroke-width="1"><g id="18/bigquery-table-view"><polygon id="Container" points="0 0 18 0 18 18 0 18"/><polygon id="Shape" fill="#000" points="4 4 2 4 2 2 4 2"/><polygon id="Shape-Copy-9" fill="#000" points="16 4 14 4 14 2 16 2"/><polygon id="Shape-Copy-2" fill="#000" points="4 12 2 12 2 10 4 10"/><polygon id="Shape-Copy-10" fill="#000" points="12 12 10 12 10 10 12 10"/><polygon id="Shape-Copy-5" fill="#000" points="8 12 6 12 6 10 8 10"/><polygon id="Shape-Copy-11" fill="#000" points="16 12 14 12 14 10 16 10"/><polygon id="Shape-Copy" fill="#000" points="4 8 2 8 2 6 4 6"/><polygon id="Shape-Copy-12" fill="#000" points="12 8 10 8 10 6 12 6"/><polygon id="Shape-Copy-6" fill="#000" points="8 8 6 8 6 6 8 6"/><polygon id="Shape-Copy-13" fill="#000" points="16 8 14 8 14 6 16 6"/><polygon id="Shape-Copy-3" fill="#000" points="4 16 2 16 2 14 4 14"/><polygon id="Shape-Copy-14" fill="#000" points="12 16 10 16 10 14 12 14"/><polygon id="Shape-Copy-7" fill="#000" points="8 16 6 16 6 14 8 14"/></g></g></svg>